<?xml version="1.0" encoding="utf-8"?>
<!-- Generator: Adobe Illustrator 14.0.0, SVG Export Plug-In . SVG Version: 6.00 Build 43363)  -->
<!DOCTYPE svg PUBLIC "-//W3C//DTD SVG 1.0//EN" "http://www.w3.org/TR/2001/REC-SVG-20010904/DTD/svg10.dtd">
<svg version="1.0" id="Layer_1" xmlns="http://www.w3.org/2000/svg" xmlns:xlink="http://www.w3.org/1999/xlink" x="0px" y="0px"
	 width="235.8px" height="33.7px" viewBox="0 0 235.8 33.7" enable-background="new 0 0 235.8 33.7" xml:space="preserve">
<path fill="#EB1F30" d="M17.5,1c-8.8,0-16,7.2-16,16c0,8.8,7.2,16,16,16c8.8,0,16-7.2,16-16C33.5,8.2,26.3,1,17.5,1 M21.7,11.7
	l-1.5,0c-1.2,0-1.4,0.6-1.4,1.4v1.8h2.8l-0.4,2.8h-2.5V25h-2.9v-7.3h-2.5v-2.8h2.5v-2.1c0-2.4,1.5-3.8,3.7-3.8c1,0,1.9,0.1,2.2,0.1
	V11.7z"/>
<path fill="#EB1F30" d="M50.5,1c-8.8,0-16,7.2-16,16c0,8.8,7.2,16,16,16s16-7.2,16-16C66.5,8.2,59.3,1,50.5,1 M56.9,13.7
	c0,0.1,0,0.3,0,0.4c0,4.3-3.3,9.3-9.3,9.3c-1.9,0-3.6-0.5-5-1.5c0.3,0,0.5,0,0.8,0c1.5,0,3-0.5,4.1-1.4c-1.4,0-2.6-1-3.1-2.3
	c0.2,0,0.4,0.1,0.6,0.1c0.3,0,0.6,0,0.9-0.1c-1.5-0.3-2.6-1.6-2.6-3.2c0,0,0,0,0,0c0.4,0.2,0.9,0.4,1.5,0.4
	c-0.9-0.6-1.5-1.6-1.5-2.7c0-0.6,0.2-1.2,0.4-1.7c1.6,2,4,3.3,6.8,3.4c-0.1-0.2-0.1-0.5-0.1-0.7c0-1.8,1.5-3.3,3.3-3.3
	c0.9,0,1.8,0.4,2.4,1c0.7-0.1,1.5-0.4,2.1-0.8c-0.2,0.8-0.8,1.4-1.4,1.8c0.7-0.1,1.3-0.3,1.9-0.5C58.1,12.7,57.5,13.3,56.9,13.7"/>
<path fill="#EB1F30" d="M218.2,1c-8.8,0-16,7.2-16,16s7.2,16,16,16s16-7.2,16-16S227,1,218.2,1 M222.9,19.7c-2.2,2.8-4,4.2-5.5,4.2
	c-0.9,0-1.7-0.9-2.4-2.6c-0.4-1.6-0.9-3.2-1.3-4.7c-0.5-1.7-1-2.6-1.5-2.6c-0.1,0-0.5,0.3-1.3,0.8l-0.8-1c0.8-0.7,1.6-1.4,2.3-2.1
	c1.1-0.9,1.8-1.4,2.4-1.4c1.2-0.1,2,0.7,2.3,2.6c0.3,2,0.5,3.2,0.6,3.7c0.4,1.6,0.8,2.4,1.2,2.4c0.3,0,0.8-0.5,1.5-1.6
	c0.7-1.1,1-1.9,1.1-2.4c0.1-0.9-0.3-1.4-1.1-1.4c-0.4,0-0.8,0.1-1.2,0.3c0.8-2.6,2.3-3.8,4.5-3.8c1.6,0,2.4,1.1,2.3,3.2
	C226.1,14.8,225,17,222.9,19.7"/>
<path fill="#EB1F30" d="M150.5,1c-8.8,0-16,7.2-16,16c0,8.8,7.2,16,16,16c8.8,0,16-7.2,16-16C166.5,8.2,159.3,1,150.5,1 M152.8,23.4
	c0,0-1.1,0.1-2.3,0.1c-1.2,0-2.3-0.1-2.3-0.1c-2.8-0.3-5.7-1.4-5.7-6.2c0-1.4,0.5-2.5,1.3-3.4c-0.1-0.3-0.6-1.6,0.1-3.3
	c0,0,1.1-0.3,3.4,1.3c1-0.3,2.1-0.4,3.1-0.4c1.1,0,2.1,0.1,3.1,0.4c2.4-1.6,3.4-1.3,3.4-1.3c0.7,1.7,0.3,3,0.1,3.3
	c0.8,0.9,1.3,2,1.3,3.4C158.5,22,155.6,23.1,152.8,23.4"/>
<g>
	<path fill="#EB1F30" d="M117.2,1c-8.8,0-16,7.2-16,16c0,8.8,7.2,16,16,16s16-7.2,16-16C133.2,8.2,126,1,117.2,1 M125.2,17.6
		c0,1.3-0.2,2.6-0.2,2.6s-0.2,1.1-0.6,1.6c-0.6,0.6-1.3,0.6-1.6,0.7c-2.2,0.2-5.6,0.2-5.6,0.2s-4.2,0-5.4-0.2
		c-0.4-0.1-1.2,0-1.8-0.7c-0.5-0.5-0.6-1.6-0.6-1.6s-0.2-1.3-0.2-2.6v-1.2c0-1.3,0.2-2.6,0.2-2.6s0.2-1.1,0.6-1.6
		c0.6-0.6,1.3-0.6,1.6-0.7c2.2-0.2,5.6-0.2,5.6-0.2h0c0,0,3.4,0,5.6,0.2c0.3,0,1,0,1.6,0.7c0.5,0.5,0.6,1.6,0.6,1.6s0.2,1.3,0.2,2.6
		V17.6z"/>
	<polygon fill="#EB1F30" points="115.5,19.1 119.8,16.8 115.5,14.6 	"/>
</g>
<g>
	<path fill="#EB1F30" d="M184.5,19.9c1.7,0,3.1-1.4,3.1-3.1s-1.4-3.1-3.1-3.1s-3.1,1.4-3.1,3.1S182.8,19.9,184.5,19.9"/>
	<path fill="#EB1F30" d="M188.1,13.7h2.2c0.2,0,0.4-0.2,0.4-0.4v-2.2c0-0.2-0.2-0.4-0.4-0.4h-2.2c-0.2,0-0.4,0.2-0.4,0.4v2.2
		C187.6,13.5,187.8,13.7,188.1,13.7"/>
	<path fill="#EB1F30" d="M184.5,0.8c-8.8,0-16,7.2-16,16c0,8.8,7.2,16,16,16s16-7.2,16-16C200.5,8,193.3,0.8,184.5,0.8 M192.5,22.9
		c0,1-0.9,1.9-1.9,1.9h-12.2c-1.1,0-1.9-0.8-1.9-1.9V10.7c0-1,0.9-1.9,1.9-1.9h12.2c1.1,0,1.9,0.8,1.9,1.9V22.9z"/>
	<path fill="#EB1F30" d="M189.4,16.8c0,2.7-2.2,4.9-4.9,4.9c-2.7,0-4.9-2.2-4.9-4.9c0-0.4,0.1-0.9,0.2-1.3h-1.5v7
		c0,0.2,0.2,0.4,0.4,0.4h11.5c0.2,0,0.4-0.2,0.4-0.4v-7h-1.5C189.3,16,189.4,16.4,189.4,16.8"/>
</g>
<g>
	<path fill="#EB1F30" d="M81.2,10.4c-0.3-0.2-0.7-0.3-1.1-0.4c-0.5,0-1,0.2-1.4,0.6c-0.3,0.4-0.5,0.9-0.4,1.5c0,0.7,0.2,1.4,0.6,2.2
		c0.2,0.4,0.5,0.7,0.8,0.9c0.3,0.2,0.7,0.4,1.1,0.4c0.5,0,1-0.2,1.3-0.6c0.2-0.2,0.3-0.5,0.3-0.8c0-0.3,0-0.5,0-0.7
		c0-0.8-0.2-1.5-0.6-2.3C81.7,10.9,81.5,10.6,81.2,10.4"/>
	<path fill="#EB1F30" d="M81,18.7c-0.1,0-0.4,0-0.8,0c-0.4,0.1-0.8,0.1-1.3,0.3c-0.1,0-0.2,0.1-0.4,0.2c-0.2,0.1-0.4,0.2-0.6,0.4
		c-0.2,0.2-0.3,0.4-0.5,0.6c-0.1,0.2-0.2,0.5-0.2,0.9c0,0.7,0.3,1.2,1,1.7c0.6,0.4,1.4,0.7,2.5,0.7c1,0,1.7-0.2,2.2-0.6
		c0.5-0.4,0.7-0.9,0.7-1.5c0-0.5-0.2-0.9-0.5-1.3c-0.4-0.3-0.9-0.8-1.7-1.3C81.4,18.7,81.2,18.7,81,18.7"/>
	<path fill="#EB1F30" d="M83.5,0.8c-8.8,0-16,7.2-16,16c0,8.8,7.2,16,16,16s16-7.2,16-16C99.5,8,92.4,0.8,83.5,0.8 M83.3,10.4
		c0.2,0.2,0.3,0.3,0.4,0.6c0.1,0.2,0.3,0.5,0.4,0.7c0.1,0.3,0.1,0.6,0.1,1c0,0.7-0.2,1.3-0.5,1.7c-0.2,0.2-0.3,0.4-0.5,0.6
		c-0.2,0.2-0.4,0.3-0.6,0.5c-0.1,0.1-0.2,0.3-0.3,0.4c-0.1,0.2-0.2,0.3-0.2,0.6c0,0.2,0.1,0.4,0.2,0.5c0.1,0.1,0.2,0.2,0.3,0.3
		l0.7,0.5c0.4,0.3,0.8,0.7,1.1,1.1c0.3,0.4,0.5,1,0.5,1.6c0,0.9-0.4,1.8-1.3,2.5c-0.9,0.8-2.2,1.1-3.9,1.2c-1.4,0-2.5-0.3-3.2-0.9
		c-0.7-0.5-1.1-1.2-1.1-1.9c0-0.4,0.1-0.8,0.3-1.2c0.2-0.4,0.6-0.8,1.2-1.2c0.7-0.4,1.3-0.6,2.1-0.7c0.7-0.1,1.3-0.2,1.8-0.2
		c-0.1-0.2-0.3-0.4-0.4-0.6c-0.1-0.2-0.2-0.5-0.2-0.7c0-0.2,0-0.3,0.1-0.4c0-0.1,0.1-0.2,0.1-0.3c-0.2,0-0.4,0-0.6,0
		c-1.1,0-1.9-0.3-2.5-1c-0.6-0.6-0.9-1.3-0.9-2.1c0-1,0.4-1.8,1.3-2.6c0.6-0.5,1.2-0.8,1.8-0.9c0.6-0.1,1.2-0.2,1.7-0.2h4l-1.2,0.7
		h-1.2C83,10.2,83.1,10.3,83.3,10.4 M91.5,17.4h-2.3v2.3h-1.1v-2.3h-2.3v-1.1h2.3V14h1.1v2.3h2.3V17.4z"/>
</g>
</svg>
