<?xml version="1.0" encoding="utf-8"?>
<!-- Generator: Adobe Illustrator 14.0.0, SVG Export Plug-In . SVG Version: 6.00 Build 43363)  -->
<!DOCTYPE svg PUBLIC "-//W3C//DTD SVG 1.1//EN" "http://www.w3.org/Graphics/SVG/1.1/DTD/svg11.dtd">
<svg version="1.1" id="Layer_1" xmlns="http://www.w3.org/2000/svg" xmlns:xlink="http://www.w3.org/1999/xlink" x="0px" y="0px"
	 width="272.667px" height="272.667px" viewBox="0 0 272.667 272.667" enable-background="new 0 0 272.667 272.667"
	 xml:space="preserve">
<g>
	<g>
		<path d="M84.667,173v-63l-10.334,7.666v-11L84.667,99h10.666v74H84.667z"/>
		<path d="M106,151.334c0-7.334,3-12.668,9-16.668c-5-4.666-7.332-9.666-7.332-15c0-5.666,2-11.332,6.332-15
			c4.334-4.332,9.334-6.332,15-6.332c6.334,0,11.334,2,15,6.332c4.334,4.334,6.334,9.334,6.334,15c0,5.334-2.334,10.334-7.334,15
			c5.668,4,9,9.668,9,16.668c0,6.666-2.332,12-6.666,16.332C141,172,135.667,174,129.667,174S118,172,114,167.667
			C108,163,106,158,106,151.334z M116.667,151.334c0,3.332,1,6.332,3.332,8.332c2.334,2,5,3.334,8.334,3.334
			c3,0,6.334-1,8.334-3.334c2-2.332,3.332-5,3.332-8.332c0-3.334-1-6.334-3.332-8.334c-2.334-2-5-3.334-8.334-3.334
			c-3,0-6.334,1-8.334,3.334C117.667,145,116.667,148,116.667,151.334z M117.667,119.334c0,3.332,1,6.332,3.332,8
			c2,2,4.334,2.666,7.334,2.666s5.334-0.666,7.334-2.666s3-4.668,3-7.668s-1-5.666-3-7.666s-4.668-2.666-7.334-2.666
			c-3,0-5.334,0.666-7.334,2.666C119,113.667,117.667,116.334,117.667,119.334z"/>
		<path d="M160,152v-32.666c0-6.668,2.334-12,6.668-15.668c4-4,9-5.332,14.666-5.332s10.666,2,14.666,5.332
			c4.334,4,6.668,9.334,6.668,15.668V152c0,6.666-2.334,12-6.668,15.666c-4,4-9,5.334-14.666,5.334s-10.666-2-14.666-5.334
			C161.667,164,160,158.667,160,152z M191,151.667V120c0-3.334-0.666-6.334-2.666-8.334s-4.334-3-7.666-3c-3,0-5.668,1-7.668,3
			s-2.666,4.668-2.666,8.334v31.666C170.333,155,171,158,173,160s4.334,3,7.668,3c3,0,5.666-1,7.666-3S191,155.334,191,151.667z"/>
	</g>
	<path fill="#EB1F30" d="M136.333,0C61,0,0,61,0,136.334c0,75.332,61,136.332,136.334,136.332s136.334-61,136.334-136.332
		C272.667,61,212,0,136.333,0z M136.333,249.667c-62.666,0-113.334-51-113.334-113.332C23,74,74,23,136.333,23
		s113.334,50.668,113.334,113.334S199.333,249.667,136.333,249.667z"/>
</g>
</svg>
